<svg width="12" height="13" viewBox="0 0 12 13" fill="none" xmlns="http://www.w3.org/2000/svg">
<path d="M10.985 9.48507C10.985 9.66507 10.945 9.85007 10.86 10.0301C10.775 10.2101 10.665 10.3801 10.52 10.5401C10.275 10.8101 10.005 11.0051 9.7 11.1301C9.4 11.2551 9.075 11.3201 8.725 11.3201C8.215 11.3201 7.67 11.2001 7.095 10.9551C6.52 10.7101 5.945 10.3801 5.375 9.96507C4.8 9.54507 4.255 9.08007 3.735 8.56507C3.22 8.04507 2.755 7.50007 2.34 6.93007C1.93 6.36007 1.6 5.79007 1.36 5.22507C1.12 4.65507 1 4.11007 1 3.59007C1 3.25007 1.06 2.92507 1.18 2.62507C1.3 2.32007 1.49 2.04007 1.755 1.79007C2.075 1.47507 2.425 1.32007 2.795 1.32007C2.935 1.32007 3.075 1.35007 3.2 1.41007C3.33 1.47007 3.445 1.56007 3.535 1.69007L4.695 3.32507C4.785 3.45007 4.85 3.56507 4.895 3.67507C4.94 3.78007 4.965 3.88507 4.965 3.98007C4.965 4.10007 4.93 4.22007 4.86 4.33507C4.795 4.45007 4.7 4.57007 4.58 4.69007L4.2 5.08507C4.145 5.14007 4.12 5.20507 4.12 5.28507C4.12 5.32507 4.125 5.36007 4.135 5.40007C4.15 5.44007 4.165 5.47007 4.175 5.50007C4.265 5.66507 4.42 5.88007 4.64 6.14007C4.865 6.40007 5.105 6.66507 5.365 6.93007C5.635 7.19507 5.895 7.44007 6.16 7.66507C6.42 7.88507 6.635 8.03507 6.805 8.12507C6.83 8.13507 6.86 8.15007 6.895 8.16507C6.935 8.18007 6.975 8.18507 7.02 8.18507C7.105 8.18507 7.17 8.15507 7.225 8.10007L7.605 7.72507C7.73 7.60007 7.85 7.50507 7.965 7.44507C8.08 7.37507 8.195 7.34007 8.32 7.34007C8.415 7.34007 8.515 7.36007 8.625 7.40507C8.735 7.45007 8.85 7.51507 8.975 7.60007L10.63 8.77507C10.76 8.86507 10.85 8.97007 10.905 9.09507C10.955 9.22007 10.985 9.34507 10.985 9.48507Z" stroke="white" stroke-width="1.2" stroke-miterlimit="10"/>
<path d="M9.25 4.82007C9.25 4.52007 9.015 4.06007 8.665 3.68507C8.345 3.34007 7.92 3.07007 7.5 3.07007" stroke="white" stroke-width="1.2" stroke-linecap="round" stroke-linejoin="round"/>
<path d="M11 4.82007C11 2.88507 9.435 1.32007 7.5 1.32007" stroke="white" stroke-width="1.2" stroke-linecap="round" stroke-linejoin="round"/>
</svg>
