<svg width="12" height="11" viewBox="0 0 12 11" fill="none" xmlns="http://www.w3.org/2000/svg">
<path fill-rule="evenodd" clip-rule="evenodd" d="M0 3.20925C0 2.97807 0.187416 2.79065 0.418605 2.79065H11.5814C11.8126 2.79065 12 2.97807 12 3.20925C12 3.44044 11.8126 3.62786 11.5814 3.62786H0.418605C0.187416 3.62786 0 3.44044 0 3.20925Z" fill="#EF923C"/>
<path fill-rule="evenodd" clip-rule="evenodd" d="M2.23256 7.67446C2.23256 7.44328 2.41997 7.25586 2.65116 7.25586H3.76744C3.99863 7.25586 4.18605 7.44328 4.18605 7.67446C4.18605 7.90565 3.99863 8.09307 3.76744 8.09307H2.65116C2.41997 8.09307 2.23256 7.90565 2.23256 7.67446Z" fill="#EF923C"/>
<path fill-rule="evenodd" clip-rule="evenodd" d="M4.74419 7.67446C4.74419 7.44328 4.9316 7.25586 5.16279 7.25586H7.39535C7.62654 7.25586 7.81395 7.44328 7.81395 7.67446C7.81395 7.90565 7.62654 8.09307 7.39535 8.09307H5.16279C4.9316 8.09307 4.74419 7.90565 4.74419 7.67446Z" fill="#EF923C"/>
<path fill-rule="evenodd" clip-rule="evenodd" d="M1.20897 1.20674C0.971725 1.44131 0.837209 1.88717 0.837209 2.86884V7.45674C0.837209 8.43862 0.971803 8.88409 1.20869 9.11787C1.4471 9.35315 1.90146 9.48559 2.89557 9.48279L2.89674 9.48279L9.10326 9.48279C10.0973 9.48279 10.5521 9.34947 10.791 9.11326C11.0283 8.87869 11.1628 8.43283 11.1628 7.45116V2.86884C11.1628 1.88713 11.0282 1.44154 10.7906 1.20701C10.551 0.970581 10.0947 0.837209 9.09767 0.837209H2.89674C1.9027 0.837209 1.44786 0.970535 1.20897 1.20674ZM0.620333 0.611401C1.12516 0.112256 1.90939 0 2.89674 0H9.09767C10.0876 0 10.8731 0.11221 11.3787 0.611125C11.8862 1.11195 12 1.89148 12 2.86884V7.45116C12 8.42856 11.8861 9.20782 11.3797 9.7086C10.8748 10.2077 10.0906 10.32 9.10326 10.32H2.89716C1.91023 10.3227 1.12579 10.2123 0.620616 9.71376C0.113778 9.21358 0 8.43394 0 7.45674V2.86884C0 1.89144 0.113856 1.11218 0.620333 0.611401Z" fill="#EF923C"/>
</svg>
