<svg width="12" height="12" viewBox="0 0 12 12" fill="none" xmlns="http://www.w3.org/2000/svg">
<path fill-rule="evenodd" clip-rule="evenodd" d="M5.22523 3.81756C4.87685 3.81756 4.56104 4.12 4.56104 4.53197C4.56104 4.81254 4.62144 4.94087 4.67491 5.00907C4.73213 5.08208 4.82838 5.14693 5.01784 5.21421L7.26833 5.99602C7.51901 6.08487 7.79086 6.21804 7.99165 6.47419C8.19632 6.73529 8.28383 7.06742 8.28383 7.46779C8.28383 8.30605 7.62847 9.01942 6.78244 9.01942H5.38151C4.44485 9.01942 3.72383 8.23211 3.72383 7.30035C3.72383 7.06916 3.91125 6.88174 4.14244 6.88174C4.37362 6.88174 4.56104 7.06916 4.56104 7.30035C4.56104 7.80858 4.94514 8.18221 5.38151 8.18221H6.78244C7.13082 8.18221 7.44662 7.87976 7.44662 7.46779C7.44662 7.18722 7.38622 7.0589 7.33276 6.99069C7.27553 6.91769 7.17929 6.85284 6.98983 6.78556L4.73933 6.00375C4.48865 5.9149 4.2168 5.78172 4.01601 5.52558C3.81134 5.26448 3.72383 4.93234 3.72383 4.53197C3.72383 3.69371 4.37919 2.98035 5.22523 2.98035H6.62616C7.56281 2.98035 8.28383 3.76765 8.28383 4.69942C8.28383 4.93061 8.09642 5.11802 7.86523 5.11802C7.63404 5.11802 7.44662 4.93061 7.44662 4.69942C7.44662 4.19118 7.06252 3.81756 6.62616 3.81756H5.22523Z" fill="#B0A2FF"/>
<path fill-rule="evenodd" clip-rule="evenodd" d="M5.99999 2.23254C6.23118 2.23254 6.4186 2.41996 6.4186 2.65115V9.34882C6.4186 9.58001 6.23118 9.76743 5.99999 9.76743C5.76881 9.76743 5.58139 9.58001 5.58139 9.34882V2.65115C5.58139 2.41996 5.76881 2.23254 5.99999 2.23254Z" fill="#B0A2FF"/>
<path fill-rule="evenodd" clip-rule="evenodd" d="M1.62158 1.62158C1.11059 2.13257 0.837209 2.97152 0.837209 4.32558V7.67442C0.837209 9.02848 1.11059 9.86743 1.62158 10.3784C2.13257 10.8894 2.97152 11.1628 4.32558 11.1628H7.67442C9.02848 11.1628 9.86743 10.8894 10.3784 10.3784C10.8894 9.86743 11.1628 9.02848 11.1628 7.67442V4.32558C11.1628 2.97152 10.8894 2.13257 10.3784 1.62158C9.86743 1.11059 9.02848 0.837209 7.67442 0.837209H4.32558C2.97152 0.837209 2.13257 1.11059 1.62158 1.62158ZM1.02958 1.02958C1.7744 0.284763 2.88895 0 4.32558 0H7.67442C9.11105 0 10.2256 0.284763 10.9704 1.02958C11.7152 1.7744 12 2.88895 12 4.32558V7.67442C12 9.11105 11.7152 10.2256 10.9704 10.9704C10.2256 11.7152 9.11105 12 7.67442 12H4.32558C2.88895 12 1.7744 11.7152 1.02958 10.9704C0.284763 10.2256 0 9.11105 0 7.67442V4.32558C0 2.88895 0.284763 1.7744 1.02958 1.02958Z" fill="#B0A2FF"/>
</svg>
