<svg width="14" height="13" viewBox="0 0 14 13" fill="none" xmlns="http://www.w3.org/2000/svg">
<path d="M11.965 3.70007L10.28 10.4651C10.16 10.9701 9.71 11.3201 9.19 11.3201H2.61999C1.86499 11.3201 1.325 10.58 1.55 9.85504L3.65499 3.09509C3.79999 2.62509 4.235 2.30005 4.725 2.30005H10.875C11.35 2.30005 11.745 2.59005 11.91 2.99005C12.005 3.20505 12.025 3.45007 11.965 3.70007Z" stroke="#79C75C" stroke-width="1.2" stroke-miterlimit="10"/>
<path d="M9 11.3201H11.39C12.035 11.3201 12.54 10.7751 12.495 10.1301L12 3.32007" stroke="#79C75C" stroke-width="1.2" stroke-miterlimit="10" stroke-linecap="round" stroke-linejoin="round"/>
<path d="M5.83984 3.51007L6.35985 1.3501" stroke="#79C75C" stroke-width="1.2" stroke-miterlimit="10" stroke-linecap="round" stroke-linejoin="round"/>
<path d="M9.18994 3.51495L9.65994 1.34497" stroke="#79C75C" stroke-width="1.2" stroke-miterlimit="10" stroke-linecap="round" stroke-linejoin="round"/>
<path d="M4.85001 6.32007H8.85001" stroke="#79C75C" stroke-width="1.2" stroke-miterlimit="10" stroke-linecap="round" stroke-linejoin="round"/>
<path d="M4.35001 8.32007H8.35001" stroke="#79C75C" stroke-width="1.2" stroke-miterlimit="10" stroke-linecap="round" stroke-linejoin="round"/>
</svg>
