<svg width="12" height="13" viewBox="0 0 12 13" fill="none" xmlns="http://www.w3.org/2000/svg">
<path d="M4.25 9.82007H4C2 9.82007 1 9.32007 1 6.82007V4.32007C1 2.32007 2 1.32007 4 1.32007H8C10 1.32007 11 2.32007 11 4.32007V6.82007C11 8.82007 10 9.82007 8 9.82007H7.75C7.595 9.82007 7.445 9.89507 7.35 10.0201L6.6 11.0201C6.27 11.4601 5.73 11.4601 5.4 11.0201L4.65 10.0201C4.57 9.91007 4.385 9.82007 4.25 9.82007Z" stroke="white" stroke-width="1.2" stroke-miterlimit="10" stroke-linecap="round" stroke-linejoin="round"/>
<path d="M3.5 4.32007H8.5" stroke="white" stroke-width="1.2" stroke-linecap="round" stroke-linejoin="round"/>
<path d="M3.5 6.82007H6.5" stroke="white" stroke-width="1.2" stroke-linecap="round" stroke-linejoin="round"/>
</svg>
