<svg width="12" height="13" viewBox="0 0 12 13" fill="none" xmlns="http://www.w3.org/2000/svg">
<path fill-rule="evenodd" clip-rule="evenodd" d="M1.62158 1.94165C1.11059 2.45264 0.837209 3.29159 0.837209 4.64565V7.99449C0.837209 9.34855 1.11059 10.1875 1.62158 10.6985C2.13257 11.2095 2.97152 11.4829 4.32558 11.4829H7.67442C9.02848 11.4829 9.86743 11.2095 10.3784 10.6985C10.8894 10.1875 11.1628 9.34855 11.1628 7.99449V4.64565C11.1628 3.29159 10.8894 2.45264 10.3784 1.94165C9.86743 1.43065 9.02848 1.15728 7.67442 1.15728H4.32558C2.97152 1.15728 2.13257 1.43065 1.62158 1.94165ZM1.02958 1.34965C1.7744 0.604832 2.88895 0.320068 4.32558 0.320068H7.67442C9.11105 0.320068 10.2256 0.604832 10.9704 1.34965C11.7152 2.09447 12 3.20901 12 4.64565V7.99449C12 9.43112 11.7152 10.5457 10.9704 11.2905C10.2256 12.0353 9.11105 12.3201 7.67442 12.3201H4.32558C2.88895 12.3201 1.7744 12.0353 1.02958 11.2905C0.284763 10.5457 0 9.43112 0 7.99449V4.64565C0 3.20901 0.284763 2.09447 1.02958 1.34965Z" fill="#E7E7E7"/>
<path fill-rule="evenodd" clip-rule="evenodd" d="M8.03197 4.1989C8.19544 4.36238 8.19544 4.62742 8.03197 4.7909L4.38175 8.44112C4.21827 8.60459 3.95323 8.60459 3.78975 8.44112C3.62628 8.27764 3.62628 8.0126 3.78975 7.84912L7.43997 4.1989C7.60345 4.03543 7.86849 4.03543 8.03197 4.1989Z" fill="#E7E7E7"/>
<path fill-rule="evenodd" clip-rule="evenodd" d="M4.31443 4.45586C4.16647 4.45586 4.04651 4.57581 4.04651 4.72377C4.04651 4.87172 4.16645 4.99167 4.31443 4.99167C4.46239 4.99167 4.58232 4.87174 4.58232 4.72377C4.58232 4.5758 4.46237 4.45586 4.31443 4.45586ZM3.2093 4.72377C3.2093 4.11344 3.70409 3.61865 4.31443 3.61865C4.92478 3.61865 5.41953 4.11345 5.41953 4.72377C5.41953 5.33411 4.92477 5.82888 4.31443 5.82888C3.7041 5.82888 3.2093 5.33413 3.2093 4.72377Z" fill="#E7E7E7"/>
<path fill-rule="evenodd" clip-rule="evenodd" d="M7.96466 7.64849C7.8167 7.64849 7.69677 7.76842 7.69677 7.91638C7.69677 8.06436 7.81672 8.1843 7.96466 8.1843C8.11262 8.1843 8.23258 8.06435 8.23258 7.91638C8.23258 7.76844 8.11264 7.64849 7.96466 7.64849ZM6.85956 7.91638C6.85956 7.30605 7.35432 6.81128 7.96466 6.81128C8.57499 6.81128 9.06979 7.30603 9.06979 7.91638C9.06979 8.52672 8.575 9.02151 7.96466 9.02151C7.35431 9.02151 6.85956 8.52671 6.85956 7.91638Z" fill="#E7E7E7"/>
</svg>
