<svg width="14" height="18" viewBox="0 0 14 18" fill="none" xmlns="http://www.w3.org/2000/svg">
<path d="M3.77416 3.38708C3.77416 1.83712 5.03065 0.580627 6.58061 0.580627C8.13057 0.580627 9.38706 1.83712 9.38706 3.38708V7.12901C9.38706 8.67897 8.13057 9.93547 6.58061 9.93547C5.03065 9.93547 3.77416 8.67897 3.77416 7.12901V3.38708Z" fill="#58BCFF"/>
<path d="M7.5161 13.6111C10.6895 13.1572 13.129 10.428 13.129 7.12901C13.129 6.61236 12.7102 6.19353 12.1935 6.19353C11.6769 6.19353 11.258 6.61236 11.258 7.12901C11.258 9.71228 9.16388 11.8064 6.58061 11.8064C3.99735 11.8064 1.90319 9.71228 1.90319 7.12901C1.90319 6.61236 1.48436 6.19353 0.96771 6.19353C0.451057 6.19353 0.0322266 6.61236 0.0322266 7.12901C0.0322266 10.428 2.47169 13.1572 5.64513 13.6111V15.5484H2.83868C2.32202 15.5484 1.90319 15.9672 1.90319 16.4839C1.90319 17.0005 2.32202 17.4193 2.83868 17.4193H10.3225C10.8392 17.4193 11.258 17.0005 11.258 16.4839C11.258 15.9672 10.8392 15.5484 10.3225 15.5484H7.5161V13.6111Z" fill="#58BCFF"/>
</svg>
