<svg width="15" height="12" viewBox="0 0 15 12" fill="none" xmlns="http://www.w3.org/2000/svg">
<path d="M0.0322266 2.45166C0.0322266 1.41835 0.869887 0.580688 1.90319 0.580688H7.5161C8.5494 0.580688 9.38706 1.41835 9.38706 2.45166V9.93553C9.38706 10.9688 8.5494 11.8065 7.5161 11.8065H1.90319C0.869887 11.8065 0.0322266 10.9688 0.0322266 9.93553V2.45166Z" fill="#FF7070"/>
<path d="M11.7752 3.4859C11.4582 3.64437 11.258 3.96829 11.258 4.32262V8.06456C11.258 8.4189 11.4582 8.74282 11.7752 8.90128L13.6461 9.83677C13.9361 9.98176 14.2805 9.96627 14.5563 9.79581C14.8321 9.62536 15 9.32426 15 9.00004V3.38714C15 3.06292 14.8321 2.76182 14.5563 2.59137C14.2805 2.42092 13.9361 2.40542 13.6461 2.55042L11.7752 3.4859Z" fill="#FF7070"/>
</svg>
